<svg xmlns="http://www.w3.org/2000/svg" viewBox="0 0 181.003 55.411">
  <defs>
    <style>
      .cls-1 {
        fill: #333;
      }

      .cls-2, .cls-4 {
        fill: #ff7746;
      }

      .cls-3 {
        fill: #ffb882;
      }

      .cls-4 {
        opacity: 0.5;
      }
    </style>
  </defs>
  <g id="Group_17" data-name="Group 17" transform="translate(-1033.096 599)">
    <g id="XMLID_7_" transform="translate(1113.125 -586.951)">
      <path id="XMLID_112_" class="cls-1" d="M930.507,203.1A8.687,8.687,0,0,1,934,208.235a13.567,13.567,0,0,1-.317,7.352l-.317,1.111a20.03,20.03,0,0,1-3.861,7.352,19.53,19.53,0,0,1-6.347,5.078,16.8,16.8,0,0,1-7.564,1.851H905.7l8.463-29.779h9.68A12.243,12.243,0,0,1,930.507,203.1Zm-4.6,12.483c.741-2.645.793-4.708.159-6.083s-1.957-2.063-3.967-2.063h-2.116L915.009,224.9h2.327a6.921,6.921,0,0,0,4.972-2.063,13.457,13.457,0,0,0,3.279-6.136Z" transform="translate(-905.7 -200.883)"/>
      <path id="XMLID_119_" class="cls-1" d="M984.634,224.244a18.844,18.844,0,0,1-6.136,5.131,15.523,15.523,0,0,1-7.3,1.8,10.371,10.371,0,0,1-6.347-1.8,8.269,8.269,0,0,1-3.174-5.131,16.425,16.425,0,0,1,.582-7.828l.317-1.058a22.69,22.69,0,0,1,3.914-7.828,18.317,18.317,0,0,1,6.136-5.131,15.577,15.577,0,0,1,7.352-1.8,10.313,10.313,0,0,1,6.294,1.8,8.334,8.334,0,0,1,3.227,5.131,16.338,16.338,0,0,1-.529,7.828l-.317,1.058A25.444,25.444,0,0,1,984.634,224.244ZM981.46,209.01a3.242,3.242,0,0,0-3.385-2.169c-3.6,0-6.189,2.8-7.775,8.463l-.317,1.111c-.793,2.751-.952,4.866-.423,6.347A3.208,3.208,0,0,0,973,224.984a6.175,6.175,0,0,0,4.6-2.222,15.6,15.6,0,0,0,3.174-6.294l.317-1.111C981.831,212.554,981.989,210.438,981.46,209.01Z" transform="translate(-931.951 -200.6)"/>
      <path id="XMLID_122_" class="cls-1" d="M1012.3,231.079l8.463-29.779h7.564l-8.463,29.779Z" transform="translate(-955.915 -200.93)"/>
      <path id="XMLID_124_" class="cls-1" d="M1070.825,207.489h-8.886l-6.718,23.591H1047.6l6.718-23.591H1045.7l1.745-6.189h25.178Z" transform="translate(-971.648 -200.93)"/>
    </g>
    <path id="XMLID_30_" class="cls-2" d="M811.684,225.46l-18.566,18.566c-9.838,9.785-27.135,8.357-38.718-3.227l23.961-23.961c2.486-2.433,6.347-3.015,10.05-1.428l8.675,3.755Z" transform="translate(278.696 -794.11)"/>
    <path id="XMLID_19_" class="cls-3" d="M754.9,202.3l17.984-17.984c9.785-9.785,27.135-8.357,38.718,3.227h0L787.747,211.4c-2.539,2.539-6.559,3.015-10.261,1.322Z" transform="translate(278.461 -776.821)"/>
    <path id="XMLID_24_" class="cls-4" d="M810.087,219.166l-9.521,9.521c-2.539,2.539-6.559,3.015-10.314,1.322L782,226.2l9.309-9.362c2.486-2.433,6.347-3.015,10.05-1.428Z" transform="translate(265.695 -794.11)"/>
  </g>
</svg>
